<?xml version="1.0" standalone="no"?>
<!DOCTYPE svg PUBLIC "-//W3C//DTD SVG 20010904//EN"
 "http://www.w3.org/TR/2001/REC-SVG-20010904/DTD/svg10.dtd">
<svg version="1.0" xmlns="http://www.w3.org/2000/svg"
 width="1280.000000pt" height="1280.000000pt" viewBox="0 0 1280.000000 1280.000000"
 preserveAspectRatio="xMidYMid meet">
<metadata>
Created by potrace 1.11, written by Peter Selinger 2001-2013
</metadata>
<g transform="translate(0.000000,1280.000000) scale(0.100000,-0.100000)"
fill="#000000" stroke="none">
<path d="M8588 11234 c-2 -1 -43 -5 -93 -9 -49 -3 -101 -8 -115 -10 -14 -2
-50 -6 -80 -9 -30 -4 -71 -9 -90 -11 -19 -3 -53 -8 -75 -10 -22 -3 -53 -8 -70
-11 -16 -3 -41 -7 -55 -9 -14 -2 -68 -11 -120 -21 -52 -9 -108 -18 -123 -20
-16 -2 -32 -6 -37 -9 -4 -3 -25 -7 -45 -11 -21 -3 -45 -7 -54 -9 -106 -24
-391 -86 -406 -89 -11 -2 -65 -14 -120 -26 -55 -12 -109 -23 -120 -25 -11 -2
-56 -10 -100 -19 -44 -9 -91 -18 -105 -21 -14 -2 -36 -7 -50 -10 -14 -2 -41
-7 -60 -10 -34 -5 -129 -21 -180 -31 -65 -11 -373 -54 -435 -60 -38 -4 -83 -8
-100 -10 -53 -6 -288 -5 -340 1 -140 17 -274 54 -362 101 -61 32 -62 25 -37
-136 9 -56 43 -191 62 -240 19 -51 76 -162 102 -200 10 -14 19 -29 21 -35 2
-5 7 -9 11 -8 4 2 5 -3 2 -10 -2 -7 5 -22 16 -34 11 -12 20 -27 20 -33 0 -6 5
-8 10 -5 6 3 10 -1 10 -9 0 -9 5 -16 11 -16 8 0 8 -4 0 -14 -9 -11 -6 -13 14
-10 20 2 24 -1 16 -10 -14 -17 -2 -29 15 -15 10 8 11 5 6 -13 -5 -20 -3 -21
10 -11 17 15 28 7 28 -19 0 -12 5 -18 13 -15 6 2 11 10 9 16 -1 7 2 10 8 6 8
-5 7 -11 -1 -21 -8 -10 -8 -14 0 -14 6 0 11 -6 11 -14 0 -8 8 -17 18 -21 14
-5 15 -4 5 6 -24 24 -13 30 11 7 13 -13 21 -27 18 -33 -3 -5 1 -4 10 3 14 11
17 10 23 -7 5 -18 10 -19 27 -10 12 6 18 7 14 1 -3 -5 1 -15 9 -22 13 -11 14
-10 10 3 -4 8 -1 18 6 23 7 4 10 3 5 -4 -3 -6 -2 -13 4 -17 6 -4 8 -11 4 -16
-3 -5 -2 -9 3 -8 4 1 10 0 13 -1 3 -1 15 -3 27 -4 18 -2 20 0 11 11 -8 11 -7
12 5 7 8 -3 18 -12 21 -20 4 -10 11 -11 31 -4 21 8 25 7 26 -8 0 -11 2 -12 6
-4 4 9 8 10 18 2 10 -8 17 -6 28 10 l15 22 7 -21 c3 -12 11 -21 16 -21 6 0 8
4 5 8 -3 5 1 9 9 9 8 0 12 -4 9 -8 -2 -4 0 -11 6 -14 6 -4 9 -1 8 6 -3 14 19
19 37 10 20 -11 55 -8 55 5 0 18 17 27 26 13 4 -8 3 -9 -4 -5 -7 4 -12 1 -12
-7 0 -17 42 -16 48 2 3 9 10 8 27 -3 22 -15 25 -14 40 6 10 15 15 18 15 8 0
-13 2 -13 10 0 9 13 10 13 10 0 0 -12 2 -12 9 -2 5 9 21 12 44 9 23 -3 44 1
58 11 12 8 20 11 16 6 -3 -5 3 -10 13 -10 14 0 16 4 9 12 -7 8 -6 15 2 20 7 4
9 3 6 -3 -4 -6 1 -13 11 -15 22 -6 44 1 36 13 -3 5 5 5 20 0 26 -10 54 7 38
24 -4 5 -1 5 6 1 7 -4 10 -11 7 -16 -3 -4 2 -11 11 -14 10 -4 13 -2 8 6 -5 8
-2 9 9 5 10 -3 18 -2 18 3 1 6 2 14 3 19 3 24 14 19 11 -5 -2 -26 -2 -27 11
-9 8 10 14 14 14 8 0 -5 10 -9 23 -7 38 4 67 16 67 28 0 6 4 6 9 -3 6 -9 11
-10 15 -2 10 15 29 14 20 -1 -6 -10 -4 -10 7 0 7 6 21 12 31 12 10 0 18 5 18
11 0 5 4 8 9 4 5 -3 7 -18 5 -33 -6 -36 -35 -193 -39 -212 -11 -50 -75 -370
-79 -395 -11 -57 -16 -81 -46 -227 -16 -81 -32 -164 -36 -185 -3 -21 -7 -46
-10 -55 -3 -10 -7 -30 -10 -45 -3 -16 -16 -84 -30 -153 -15 -69 -28 -136 -31
-150 -3 -21 -26 -135 -99 -495 -2 -11 -7 -33 -10 -50 -2 -16 -7 -41 -9 -55 -3
-14 -7 -34 -9 -45 -13 -61 -47 -234 -52 -260 -3 -16 -10 -50 -15 -75 -6 -25
-12 -56 -14 -70 -2 -14 -18 -92 -35 -175 -17 -82 -33 -161 -35 -175 -3 -14
-25 -126 -50 -250 -25 -124 -47 -236 -50 -250 -3 -14 -36 -185 -75 -380 -39
-195 -72 -366 -75 -380 -3 -14 -18 -90 -34 -170 -17 -80 -32 -159 -35 -175 -7
-36 -12 -64 -26 -130 -11 -55 -18 -87 -25 -125 -8 -43 -14 -74 -20 -100 -3
-14 -7 -36 -10 -50 -3 -14 -12 -59 -20 -100 -21 -102 -24 -120 -31 -155 -3
-16 -14 -68 -24 -115 -10 -47 -22 -98 -25 -115 -3 -16 -7 -34 -9 -40 -1 -5 -6
-28 -11 -50 -4 -22 -9 -47 -11 -55 -30 -148 -198 -800 -222 -860 -5 -14 -10
-29 -11 -35 -6 -47 -123 -402 -191 -580 -226 -585 -444 -908 -759 -1124 -211
-144 -426 -223 -726 -266 -90 -12 -484 -14 -515 -2 -8 3 -39 8 -69 12 -29 3
-57 7 -61 10 -4 2 -20 7 -36 9 -214 39 -471 179 -632 346 -49 51 -132 162
-132 178 0 5 -7 12 -15 16 -9 3 -12 12 -8 22 5 13 3 15 -8 9 -11 -7 -12 -6 -2
6 9 11 8 18 -2 33 -8 10 -11 24 -9 31 3 7 1 16 -5 20 -6 3 -9 0 -5 -8 3 -8 1
-17 -4 -21 -10 -6 -9 24 2 42 4 7 1 15 -9 18 -11 5 -15 16 -13 38 2 26 -1 31
-17 29 -20 -1 -20 -1 -1 13 11 8 16 14 10 14 -5 0 -14 12 -21 26 -10 21 -9 25
1 21 7 -3 13 1 13 9 0 7 -4 11 -8 9 -4 -3 -10 2 -13 11 -3 8 -2 13 2 10 4 -2
8 4 8 15 0 14 -6 18 -21 14 -11 -3 -14 -2 -7 1 6 3 9 11 6 16 -4 6 -3 8 3 5 6
-4 10 6 9 23 -1 17 -4 30 -8 30 -4 0 -5 7 -2 15 4 8 11 12 18 8 7 -4 7 -1 -1
9 -7 8 -9 19 -5 23 4 5 1 5 -7 0 -10 -6 -11 -2 -6 15 4 13 3 20 -2 17 -5 -4
-10 0 -10 8 0 8 3 14 6 13 19 -2 24 4 12 11 -13 8 -13 12 0 28 13 16 13 17 -3
4 -12 -9 -18 -10 -18 -2 0 6 -5 11 -11 11 -5 0 -7 -4 -4 -10 3 -5 -3 -10 -14
-10 -10 0 -22 -6 -24 -12 -5 -13 -6 -2 -11 111 -1 30 -6 56 -12 58 -6 2 -51
-23 -100 -55 -369 -243 -567 -489 -612 -757 -8 -51 -8 -177 1 -233 14 -85 77
-219 153 -323 26 -36 31 -48 21 -58 -9 -10 -9 -11 4 -6 8 3 22 -2 31 -12 17
-18 18 -21 18 -49 0 -8 4 -13 9 -10 10 6 35 -20 44 -47 4 -11 12 -15 18 -11 8
4 9 3 5 -4 -4 -7 -2 -12 4 -12 6 0 8 -5 4 -12 -5 -7 0 -9 14 -6 14 4 19 2 16
-7 -3 -7 0 -16 5 -20 6 -3 9 -10 7 -14 -3 -4 1 -8 9 -8 8 0 12 4 9 8 -2 4 0
10 5 13 5 3 8 -7 7 -22 -2 -31 16 -38 44 -18 8 6 7 1 -4 -11 -18 -22 -18 -22
3 -18 16 3 21 -1 21 -16 0 -11 5 -17 10 -14 6 4 7 11 4 17 -4 7 -2 8 4 4 6 -4
8 -14 5 -24 -3 -9 -3 -14 1 -10 10 8 34 -13 31 -27 -1 -5 0 -7 2 -3 3 4 16 0
31 -10 18 -12 24 -13 18 -3 -6 10 -5 12 2 7 7 -4 12 -14 12 -22 0 -8 16 -22
35 -31 19 -9 31 -21 28 -27 -4 -6 0 -5 9 2 13 10 18 10 24 1 4 -8 3 -9 -4 -5
-8 5 -10 1 -5 -9 5 -14 8 -14 15 -3 7 10 11 10 15 1 2 -7 11 -13 19 -13 9 0
13 4 10 8 -3 5 1 9 9 9 10 0 11 -4 6 -11 -6 -7 -4 -18 3 -29 13 -17 32 -25 21
-8 -3 5 0 13 7 17 7 4 10 4 6 -1 -4 -4 -3 -16 3 -27 9 -16 13 -17 27 -6 12 10
14 10 8 1 -4 -8 -2 -13 4 -13 6 0 8 -6 4 -12 -6 -10 -4 -10 7 -1 20 19 34 16
18 -4 -10 -11 -10 -14 -1 -9 6 4 12 2 12 -3 0 -6 4 -11 10 -11 5 0 7 6 4 14
-3 8 -1 17 5 21 6 3 9 0 6 -7 -6 -17 21 -52 33 -44 5 3 15 -1 22 -9 10 -12 16
-13 28 -3 13 10 14 10 8 1 -4 -8 -1 -13 8 -13 9 0 16 -4 16 -9 0 -5 7 -12 16
-15 14 -5 15 -4 4 9 -11 13 -10 14 4 9 9 -3 16 -10 16 -16 0 -5 5 -6 10 -3 6
3 10 0 10 -7 0 -9 3 -9 10 2 8 13 10 13 10 -1 0 -9 7 -20 16 -23 14 -5 15 -4
4 9 -11 13 -10 14 4 9 9 -3 16 -10 16 -15 0 -14 40 -11 41 4 0 6 5 2 11 -10 8
-16 20 -23 40 -23 15 0 28 -4 28 -9 0 -5 7 -12 16 -15 14 -6 15 -4 4 9 -11 13
-11 16 1 13 8 -2 17 -7 21 -13 5 -6 16 -5 30 4 21 13 22 13 9 -2 -7 -10 -11
-18 -7 -18 23 -5 33 -4 49 3 14 7 17 4 17 -14 0 -19 2 -20 10 -8 9 13 11 13
20 0 8 -13 10 -13 10 2 0 9 4 19 9 22 5 4 7 -4 4 -16 -3 -13 -3 -20 2 -16 4 4
18 3 32 -3 16 -6 22 -6 18 1 -3 6 -1 10 4 10 6 0 11 -7 11 -16 0 -8 5 -12 10
-9 6 4 7 11 4 17 -4 6 -2 8 4 4 5 -3 13 0 16 6 3 7 3 2 -1 -12 -5 -22 -4 -23
11 -11 12 10 16 10 16 1 0 -9 4 -9 17 1 11 10 14 10 9 2 -4 -8 -1 -13 9 -13
10 0 13 5 9 13 -6 8 -3 8 9 -2 10 -8 31 -12 52 -9 24 3 36 0 40 -12 6 -13 9
-12 21 4 8 11 14 15 14 9 0 -16 28 -24 36 -11 4 6 3 8 -4 4 -6 -3 -13 -3 -16
2 -5 9 98 6 122 -3 7 -3 11 -1 8 4 -12 19 23 19 43 0 12 -11 21 -15 21 -9 0 6
6 8 13 5 6 -4 4 0 -6 8 -17 14 -17 15 7 13 13 0 23 -3 21 -6 -2 -4 6 -12 18
-20 19 -12 21 -11 10 2 -7 8 -10 18 -6 21 3 4 12 -1 20 -11 8 -9 12 -11 8 -4
-3 6 -1 12 6 12 8 0 7 5 -2 18 -13 15 -12 16 4 3 10 -8 15 -21 12 -30 -3 -11
0 -10 10 3 10 13 15 15 15 6 0 -9 8 -6 23 8 13 12 27 22 33 22 5 0 1 -5 -8
-11 -10 -5 -18 -15 -18 -21 0 -7 4 -7 13 1 8 6 17 8 20 4 4 -3 7 -1 7 6 0 9 5
9 22 0 18 -10 20 -9 14 6 -6 16 -4 16 11 4 15 -12 16 -12 10 6 -7 20 -7 20 8
1 8 -11 18 -17 21 -13 4 4 1 15 -7 24 -8 11 -3 9 11 -4 17 -15 30 -19 40 -13
8 5 18 6 22 4 4 -3 5 3 1 13 -6 16 -5 17 12 3 11 -9 16 -10 11 -3 -4 7 -3 13
3 13 5 0 12 -8 14 -17 4 -17 5 -17 6 0 1 16 17 20 84 20 13 0 15 3 7 13 -9 10
-7 11 9 7 12 -3 18 -10 14 -17 -4 -6 1 -5 10 2 9 8 22 10 29 6 9 -6 9 -3 -1 9
-12 15 -12 17 3 11 12 -5 15 -2 10 12 -3 11 -2 15 3 9 4 -5 16 -16 25 -23 14
-12 16 -10 11 10 -3 13 -1 19 4 13 4 -5 14 -11 22 -13 12 -3 12 -1 0 14 -9 11
-9 15 -2 10 21 -12 54 -16 48 -5 -4 5 -11 6 -17 3 -6 -4 -8 -3 -5 3 7 11 36
11 55 0 8 -5 10 -3 6 6 -3 9 2 13 18 12 13 -1 31 2 41 7 15 8 16 12 5 26 -11
13 -11 14 2 7 8 -5 27 -10 42 -11 23 -1 26 2 18 17 -7 12 -7 20 0 24 6 4 9 1
8 -6 -2 -6 3 -14 11 -17 8 -2 11 0 7 6 -3 6 -1 14 5 18 7 4 9 3 6 -3 -4 -6 0
-14 9 -17 8 -3 13 -2 10 2 -3 4 4 14 16 21 11 7 17 8 14 2 -4 -5 -2 -13 4 -16
6 -4 9 -1 8 6 -2 7 3 14 10 15 6 1 17 2 22 3 6 0 10 6 10 12 0 8 -4 8 -13 0
-10 -8 -14 -7 -14 2 0 7 9 14 19 14 10 1 18 -3 18 -8 0 -6 5 -7 10 -4 6 4 7
12 3 18 -4 7 0 6 10 -2 14 -11 18 -11 23 3 3 9 10 14 14 11 5 -3 15 1 23 9 8
8 18 12 22 8 5 -4 5 2 1 13 -4 11 -4 16 0 12 4 -4 14 -1 22 6 13 9 14 9 8 0
-4 -7 -3 -13 2 -13 17 0 22 13 10 29 -7 9 -2 7 11 -4 14 -11 21 -14 17 -7 -4
6 -2 12 4 12 6 0 8 5 4 13 -6 9 -5 9 8 -1 12 -10 18 -9 28 3 11 13 15 13 23 3
6 -10 7 -9 4 4 -3 9 2 22 10 30 15 11 16 10 10 -7 -7 -20 -7 -20 8 -1 8 11 15
16 15 11 0 -5 6 0 14 11 10 12 11 23 5 31 -7 7 -6 14 2 19 7 4 9 3 5 -4 -3 -6
-2 -13 3 -17 6 -3 8 -13 5 -23 -2 -9 1 -7 7 6 7 13 18 21 26 18 8 -4 11 -1 8
5 -4 6 1 9 11 7 14 -2 19 3 18 20 -1 15 2 19 10 13 12 -10 61 11 61 26 0 4 6
7 12 7 7 -1 10 3 6 9 -4 7 0 8 12 3 15 -5 16 -4 6 8 -11 13 -9 14 11 11 16 -3
28 2 37 18 l14 22 -24 -20 -24 -20 19 22 c15 18 22 20 33 12 11 -9 12 -9 8 4
-8 18 11 32 21 16 5 -8 3 -9 -6 -4 -9 5 -11 4 -6 -4 11 -17 25 -4 21 19 -2 12
1 17 10 14 7 -3 16 0 21 7 5 8 3 10 -6 4 -9 -6 -11 -4 -5 5 6 10 11 9 23 -6
13 -18 14 -18 7 3 -5 19 -3 22 11 16 12 -4 15 -3 10 5 -4 7 -1 12 9 12 12 0
15 6 10 23 -7 21 -6 21 7 3 14 -18 15 -18 21 3 3 11 10 21 17 21 6 0 8 -5 4
-12 -4 -7 -3 -8 5 -4 9 6 9 11 0 22 -10 12 -9 13 6 8 14 -6 16 -4 10 7 -7 12
-6 12 7 1 13 -11 18 -11 24 0 13 20 13 38 1 38 -5 0 -7 3 -4 6 4 4 13 2 20 -5
11 -9 17 -8 27 3 6 9 9 20 5 26 -3 5 2 10 13 10 11 0 23 7 26 16 3 8 11 12 16
9 6 -4 9 -1 8 7 -2 7 3 12 10 10 8 -1 11 2 7 8 -3 5 1 10 9 10 9 0 15 5 14 12
-2 7 3 12 11 13 8 0 16 6 19 14 3 9 0 11 -8 6 -9 -5 -11 -4 -6 4 4 6 12 9 17
6 5 -4 17 -1 26 5 17 11 17 11 0 6 -11 -3 -15 -2 -12 4 3 6 14 10 24 10 18 0
72 53 75 74 3 17 25 53 26 40 0 -5 -6 -16 -12 -23 -11 -10 -10 -11 2 -6 9 3
21 15 28 26 8 12 9 18 3 14 -6 -3 -11 -4 -11 0 0 3 12 10 27 16 22 8 25 12 13
20 -11 8 -10 9 8 4 16 -5 22 -2 22 10 0 9 -4 14 -8 11 -5 -3 -9 1 -9 8 0 11 4
12 19 3 23 -14 41 6 34 38 -5 20 -5 20 9 1 8 -11 15 -15 15 -9 0 6 3 19 7 29
5 13 3 15 -7 9 -8 -5 -11 -4 -6 3 3 6 16 9 27 7 14 -3 19 0 16 9 -3 7 -1 19 5
27 8 11 9 10 4 -3 -3 -10 -1 -18 4 -18 9 0 14 14 11 32 0 4 9 5 20 3 18 -4 19
-2 8 11 -10 12 -10 17 1 27 7 7 10 7 7 1 -3 -6 0 -11 7 -11 8 0 12 7 8 15 -4
11 -1 13 8 7 8 -5 11 -4 7 2 -4 6 8 20 26 32 17 11 27 21 22 21 -6 0 -21 -7
-34 -16 -18 -13 -25 -14 -34 -4 -9 10 -9 11 1 6 7 -4 24 2 38 13 15 12 34 21
43 21 14 0 14 2 1 10 -13 9 -7 14 12 11 4 0 5 5 2 13 -3 8 0 17 5 21 6 3 9 11
6 16 -3 5 1 6 10 3 11 -5 18 0 22 15 3 11 10 21 15 21 5 0 6 5 2 12 -5 7 -2 9
9 5 11 -4 14 -2 10 9 -4 12 7 19 29 15 4 0 5 6 2 14 -4 8 -1 15 5 15 6 0 11 5
11 11 0 5 -5 7 -12 3 -7 -5 -8 -3 -4 5 5 7 14 10 21 8 8 -4 11 3 9 19 -1 13 3
27 8 31 7 3 8 1 4 -5 -4 -7 -2 -12 3 -12 6 0 11 6 11 14 0 8 5 16 12 18 10 4
15 18 20 59 1 11 9 15 23 12 16 -4 17 -3 5 6 -13 9 -13 11 2 11 12 0 15 5 11
17 -4 11 -3 14 5 9 16 -10 15 16 0 34 -11 12 -10 12 4 2 11 -9 18 -10 23 -2 3
6 11 7 17 4 7 -4 8 -2 4 4 -4 6 -12 10 -19 8 -7 -1 -9 -1 -4 1 4 3 5 9 2 13
-3 5 4 7 16 5 21 -4 21 -4 3 18 -16 18 -16 19 -1 8 12 -10 17 -10 17 -2 0 7 5
9 13 4 6 -4 4 6 -7 22 -10 17 -13 24 -5 17 18 -16 29 -15 29 4 0 9 5 12 13 8
7 -5 6 0 -3 11 -9 11 -10 16 -2 11 15 -9 15 -1 2 24 -7 13 -7 21 0 25 6 4 10
3 9 -2 -3 -19 2 -33 11 -33 6 0 10 8 8 18 -2 9 2 16 7 15 15 -2 16 38 2 57 -6
8 -1 6 12 -5 14 -11 21 -15 18 -8 -4 6 0 19 9 27 14 15 11 20 -9 17 -5 -1 -5
3 -2 9 4 6 14 9 22 6 8 -3 12 -2 8 3 -3 5 1 11 7 14 10 3 10 8 -1 21 -8 9 -10
16 -5 15 5 -1 17 1 27 6 15 6 16 10 5 16 -10 7 -8 9 6 9 15 0 16 3 7 14 -9 11
-9 16 0 22 8 4 9 3 5 -4 -4 -7 -2 -12 3 -12 6 0 11 6 11 14 0 7 7 19 15 26 9
7 13 15 10 18 -3 3 -12 -3 -21 -14 -14 -18 -14 -17 -2 6 7 14 11 30 10 37 -1
6 2 14 8 18 5 3 7 0 4 -8 -3 -8 0 -18 7 -23 7 -4 10 -3 5 4 -3 6 -2 14 4 17 8
5 7 11 -1 21 -6 8 -9 17 -5 21 3 3 6 1 6 -5 0 -7 8 -12 18 -12 14 0 15 2 2 10
-13 9 -8 14 11 12 4 -1 4 8 1 20 -3 14 -1 19 6 14 8 -4 10 -2 6 7 -3 8 2 17
12 21 13 5 14 9 4 21 -10 12 -9 15 5 15 10 0 15 3 12 7 -4 3 -2 12 4 19 6 8 9
20 6 28 -4 11 -1 13 11 9 15 -6 16 -5 2 12 -9 11 -10 16 -2 11 7 -4 12 -1 12
9 0 9 5 13 10 10 6 -3 10 -1 10 4 0 6 -5 11 -11 11 -6 0 -4 7 5 15 9 9 12 23
9 33 -6 15 -5 16 12 2 10 -8 16 -9 11 -3 -4 7 -2 22 5 34 6 12 7 19 2 16 -5
-4 -10 1 -10 9 0 9 6 13 15 9 10 -4 13 0 9 15 -3 12 -1 17 5 14 5 -3 8 2 6 12
-2 12 2 18 10 16 8 -1 11 1 9 5 -3 5 3 25 13 45 13 27 15 39 6 48 -8 9 -7 11
4 8 10 -2 14 4 13 20 -2 16 1 21 9 16 8 -5 9 -2 5 10 -5 13 -3 17 7 13 11 -5
13 0 6 24 -5 18 -5 27 1 24 5 -4 9 -1 9 5 0 6 5 8 11 4 8 -5 8 -1 0 14 -8 15
-7 23 5 33 8 7 13 18 10 26 -7 17 10 17 18 1 3 -7 2 0 -1 16 -5 22 -3 27 7 21
10 -6 11 -4 4 6 -12 20 -14 40 -3 33 5 -3 6 -10 3 -16 -4 -6 -2 -8 3 -5 6 4
10 21 9 38 -1 16 2 33 7 36 6 4 7 1 2 -8 -8 -12 -6 -12 8 0 18 15 23 26 7 16
-5 -3 -10 1 -10 10 0 9 4 14 9 10 5 -3 13 0 17 6 4 7 3 9 -3 6 -6 -4 -13 0
-17 8 -3 8 -2 14 2 14 19 -3 25 2 12 11 -13 8 -13 10 2 10 12 0 15 5 11 17 -4
10 -2 14 4 10 5 -3 10 0 10 8 0 8 -3 12 -7 10 -4 -2 -7 2 -7 9 0 9 7 12 16 8
14 -5 14 -4 1 13 -8 10 -10 16 -3 12 6 -4 14 -3 18 3 6 9 -8 14 -28 11 -5 -1
-6 3 -2 9 3 6 11 8 16 5 5 -4 17 -1 26 5 17 11 17 11 1 6 -10 -3 -18 -1 -18 4
0 6 5 10 11 10 5 0 7 5 3 12 -5 7 -2 9 7 6 9 -4 14 2 14 17 0 13 -4 21 -9 17
-5 -3 -6 0 -2 6 4 7 15 12 24 13 14 0 13 2 -3 8 -11 5 -24 6 -29 3 -5 -3 -6 0
-2 6 4 6 14 8 24 5 9 -3 14 -3 10 2 -4 4 0 14 8 22 8 9 12 18 9 21 -3 4 -10 0
-15 -8 -6 -9 -10 -10 -10 -3 0 6 5 15 10 18 6 4 8 10 5 15 -3 5 0 12 6 16 7 4
9 3 5 -4 -3 -6 -2 -13 3 -17 6 -3 8 5 5 19 -2 14 1 28 6 31 8 5 7 12 -2 23 -7
9 -8 13 -2 9 6 -3 16 4 22 18 8 18 8 25 -1 29 -9 3 -9 5 1 5 6 1 12 12 12 25
0 13 6 26 14 29 9 4 12 14 9 25 -2 11 0 23 7 27 8 5 7 11 -2 23 -7 9 -8 13 -2
9 7 -4 12 3 12 19 0 15 5 30 12 34 7 4 9 13 5 20 -6 9 -9 9 -16 -1 -5 -8 -9
-9 -9 -3 0 6 8 18 17 25 14 12 16 12 8 0 -5 -9 -4 -12 3 -7 6 3 9 20 7 37 -3
25 -1 29 12 25 13 -5 14 -4 3 9 -10 12 -9 15 6 15 16 0 16 2 4 9 -8 6 -19 7
-25 4 -5 -4 -6 -2 -2 3 5 5 14 9 20 9 7 0 13 6 13 13 1 6 2 13 4 15 8 9 6 38
-2 44 -7 4 -8 1 -3 -7 5 -9 4 -11 -4 -6 -12 8 -5 29 7 23 4 -2 15 5 25 16 19
19 18 19 -5 12 -19 -6 -21 -5 -10 6 6 7 12 17 12 22 0 4 -6 5 -12 2 -7 -4 0 3
15 15 21 17 25 25 17 35 -6 8 -19 11 -28 8 -9 -3 -3 4 13 16 17 11 26 21 20
21 -5 0 -3 5 5 10 11 7 11 10 2 10 -7 0 -10 5 -7 10 4 6 11 7 17 4 6 -4 6 2
-1 15 -10 17 -9 21 4 21 9 0 13 5 10 10 -4 6 -11 8 -16 5 -5 -4 -9 -1 -9 4 0
6 7 11 15 11 8 0 15 5 15 11 0 5 -6 7 -12 3 -10 -6 -10 -5 -1 8 7 8 14 27 15
42 2 19 7 25 18 21 12 -5 13 -4 3 6 -7 7 -13 17 -13 22 0 4 6 5 13 1 8 -5 8
-2 -2 9 -10 13 -10 17 -1 17 10 0 10 3 1 14 -9 10 -9 16 -1 21 6 4 9 14 6 22
-3 8 -1 11 4 8 6 -3 10 -2 10 4 0 5 -5 13 -11 16 -7 5 -2 16 12 31 16 17 18
24 8 24 -10 1 -8 5 6 17 16 13 17 15 3 10 -24 -9 -22 1 5 24 l22 20 -25 -6
-25 -6 25 20 c14 11 21 21 16 21 -5 0 -2 8 5 17 8 9 9 14 3 10 -7 -4 -14 0
-17 8 -4 9 -1 12 9 8 9 -3 14 1 14 12 0 10 -4 13 -12 9 -10 -6 -10 -5 -1 8 7
8 9 19 5 23 -4 5 2 5 13 1 15 -6 17 -4 8 5 -6 6 -9 18 -6 27 5 11 2 13 -8 8
-8 -4 -6 -1 4 7 21 17 31 57 14 57 -8 0 -8 3 1 12 16 16 15 31 0 23 -7 -4 -5
0 5 8 12 10 15 17 7 22 -8 5 -6 13 6 27 16 16 16 21 4 28 -10 7 -11 10 -2 10
6 0 12 5 12 11 0 5 -6 7 -12 4 -7 -4 -5 0 6 9 10 8 20 31 22 51 2 30 1 35 -11
25 -9 -8 -15 -8 -20 0 -4 6 -3 10 2 9 18 -4 41 13 36 27 -3 8 0 21 7 29 6 8 9
19 6 24 -4 5 -2 13 4 16 8 5 7 12 -2 23 -11 13 -10 15 5 9 9 -3 17 -2 17 3 0
10 -15 14 -34 11 -11 -2 11 28 33 47 9 7 11 12 3 12 -7 0 -12 4 -12 10 0 5 8
7 18 3 14 -5 14 -3 -3 11 -17 15 -18 17 -2 12 13 -4 16 -2 10 7 -10 17 -13 37
-4 37 4 0 13 -6 21 -12 12 -11 12 -10 4 2 -14 20 -15 60 -3 60 6 0 7 5 3 12
-5 7 -11 5 -21 -7 -7 -11 -13 -14 -13 -7 0 6 11 19 24 28 24 15 26 50 2 38 -6
-3 -3 1 6 9 11 9 15 21 11 37 -4 15 -2 21 5 16 6 -3 14 -2 17 4 4 6 2 9 -3 8
-6 -2 -10 0 -11 5 -3 19 0 28 7 23 4 -2 8 4 8 14 0 14 -3 16 -13 8 -10 -8 -12
-7 -7 6 3 9 13 16 20 16 12 0 12 4 3 21 -6 12 -7 19 -1 15 5 -3 12 1 16 9 6
17 -9 29 -26 19 -7 -4 -8 -3 -4 4 4 7 13 12 21 12 19 0 28 17 14 26 -8 5 -9 3
-4 -7 5 -8 4 -10 0 -6 -17 15 -14 36 3 30 10 -4 14 -3 10 2 -4 4 -2 15 5 23 9
13 9 14 0 8 -18 -10 -16 5 4 33 9 14 11 21 5 17 -7 -4 -12 -2 -12 3 0 6 5 11
10 11 6 0 10 6 9 13 -3 28 2 58 9 53 5 -3 8 13 6 34 -1 22 1 38 5 36 4 -3 7 4
7 14 0 14 -3 16 -13 8 -10 -8 -12 -7 -7 6 3 9 11 16 18 16 6 0 12 9 12 20 0
11 -3 20 -6 20 -4 0 -7 7 -7 15 0 11 4 12 13 4 9 -8 11 -5 7 12 -4 15 -3 20 5
15 8 -5 10 -2 6 8 -3 9 -11 13 -18 9 -6 -3 -3 3 7 14 18 21 19 43 2 55 -6 5
-3 8 7 8 9 0 20 5 24 12 4 7 3 8 -4 4 -16 -10 -15 7 1 23 10 11 9 12 -2 6 -9
-5 -12 -3 -9 6 3 8 10 13 15 12 6 -1 8 9 5 22 -2 15 -9 22 -16 18 -6 -3 0 6
14 22 19 21 21 27 8 22 -15 -5 -16 -4 -6 13 8 13 15 15 19 8 4 -6 6 0 6 15 -2
19 -5 23 -15 15 -9 -8 -11 -7 -6 6 3 9 10 16 15 16 5 0 9 4 9 10 0 5 -6 8 -12
6 -7 -1 -10 -1 -5 1 4 3 5 9 2 14 -4 5 0 6 8 3 8 -3 18 -1 22 5 3 6 -1 14 -9
17 -9 3 -16 10 -16 15 0 4 6 6 13 3 10 -3 13 4 12 25 -1 17 2 28 7 25 4 -3 8
0 8 5 0 6 -4 11 -10 11 -5 0 -10 5 -10 11 0 5 5 7 10 4 6 -4 10 6 10 24 0 16
6 32 13 34 8 4 8 6 -2 6 -11 1 -10 4 4 14 14 11 15 16 5 22 -9 5 -11 4 -6 -3
4 -7 2 -12 -3 -12 -16 0 -13 20 3 26 10 4 14 16 11 36 -3 24 -1 29 13 24 15
-5 15 -4 2 7 -8 6 -16 18 -18 26 -3 12 -1 12 14 0 16 -13 16 -12 5 9 -8 15 -8
22 -1 22 8 0 7 6 0 21 -6 11 -9 25 -6 32 2 7 5 5 5 -5 1 -26 18 -31 18 -5 1
50 3 58 16 51 6 -4 4 1 -5 11 -16 17 -15 20 8 51 14 18 21 35 15 38 -14 9 -10
48 8 70 9 11 10 16 4 12 -7 -4 -13 -2 -13 3 0 6 6 11 13 11 7 0 3 8 -8 17 -16
12 -16 14 -3 10 10 -3 20 -2 23 3 4 6 1 10 -4 10 -6 0 -11 5 -11 11 0 5 4 7
10 4 6 -4 7 1 3 11 -5 13 -3 15 8 9 12 -8 12 -6 0 8 -11 14 -11 17 0 17 11 0
11 2 -1 10 -13 8 -13 10 1 10 17 0 19 26 4 49 -6 11 -4 13 7 9 9 -4 15 0 15 8
0 9 -7 13 -16 10 -9 -3 -6 2 7 10 23 17 29 34 11 34 -5 0 -7 -5 -3 -12 5 -7 3
-8 -5 -4 -10 6 -9 12 2 24 21 25 32 46 20 39 -6 -4 -13 0 -17 8 -3 8 -1 17 5
21 6 3 8 12 5 20 -3 7 0 16 6 20 6 4 8 3 4 -4 -3 -6 -2 -13 3 -16 11 -7 9 13
-3 33 -7 11 -5 13 7 8 12 -4 14 -2 10 10 -5 12 -3 14 7 8 8 -5 4 9 -9 31 -19
31 -20 36 -5 22 18 -16 19 -15 20 8 1 15 -2 21 -10 17 -12 -8 13 28 29 39 7 5
6 8 0 8 -6 0 -16 -5 -23 -12 -9 -9 -9 -5 0 14 7 15 16 24 20 22 5 -3 8 0 8 5
0 10 -14 15 -33 12 -5 -1 -6 3 -2 8 3 6 12 8 19 5 8 -3 17 0 22 7 4 7 3 10 -4
5 -6 -3 -13 -2 -17 4 -3 5 1 10 11 10 14 0 15 2 3 17 -8 9 -9 14 -3 10 16 -10
22 10 20 69 -1 42 2 50 14 46 13 -5 13 -4 0 13 -9 11 -10 16 -2 11 6 -4 12 -3
12 3 0 5 -5 11 -11 13 -8 3 -6 9 4 20 9 8 13 18 10 22 -3 3 -1 11 5 18 13 17
13 30 -1 47 -9 11 -9 13 0 8 7 -5 15 2 19 15 11 33 11 41 1 55 -6 9 -4 15 9
20 16 6 16 7 -2 14 -15 6 -16 8 -3 8 18 1 35 31 18 31 -6 0 -7 5 -4 10 3 6 1
10 -6 10 -7 0 -5 6 5 13 10 8 19 26 19 40 0 15 4 27 9 27 5 0 6 5 3 10 -4 6
-12 7 -18 3 -8 -5 -8 -2 0 9 7 8 9 19 5 23 -4 5 -1 5 6 1 7 -4 9 -12 6 -18 -4
-7 -2 -8 5 -4 9 6 8 14 -4 33 -10 14 -13 23 -7 19 5 -3 13 2 17 12 12 26 13
52 3 52 -5 0 -6 5 -3 10 4 6 10 8 15 5 5 -3 12 0 16 6 4 7 3 9 -2 6 -6 -3 -16
-2 -24 4 -13 7 -12 9 3 9 10 0 17 8 17 21 0 13 4 18 13 14 6 -4 4 0 -6 8 -16
13 -16 15 -2 21 9 3 14 10 10 16 -3 5 -1 19 6 31 8 15 8 19 0 15 -16 -10 -14
1 6 32 14 21 14 24 2 15 -10 -8 -19 -9 -29 -1 -12 8 -12 9 3 4 14 -4 16 -1 13
19 -3 18 -1 22 11 18 12 -5 12 -7 1 -14 -7 -5 -8 -9 -2 -9 20 0 24 13 8 31
-12 13 -12 19 -3 25 7 4 10 3 6 -3 -3 -5 0 -10 8 -10 13 0 13 3 1 16 -14 17
-11 41 6 41 6 0 5 -8 -3 -17 -13 -16 -12 -17 3 -5 14 11 15 17 6 32 -7 10 -17
16 -23 13 -5 -4 -6 -2 -2 3 5 5 13 10 18 10 22 3 23 5 9 14 -13 9 -13 10 0 10
13 0 13 1 0 10 -13 8 -13 11 -1 22 11 11 13 11 6 -1 -5 -9 -4 -12 3 -7 19 11
15 36 -5 29 -11 -4 -14 -3 -9 5 4 7 15 12 24 12 15 0 15 2 2 10 -14 9 -7 14
13 11 5 -1 6 3 2 9 -3 6 -10 8 -14 6 -4 -3 -8 2 -8 10 0 8 5 13 12 10 7 -2 10
8 8 30 -1 19 2 32 7 29 4 -3 7 3 5 12 -1 10 -8 17 -15 15 -6 -1 -9 2 -5 8 3 6
11 8 16 4 7 -4 9 6 6 25 -3 18 -1 29 4 25 5 -3 6 -11 3 -17 -4 -7 -3 -8 1 -4
12 11 15 37 4 37 -5 0 -9 5 -9 11 0 5 6 7 13 3 6 -4 9 -3 4 1 -4 5 0 16 8 25
13 14 13 17 0 17 -8 0 -11 -5 -8 -10 3 -6 1 -7 -6 -3 -15 10 -4 26 17 26 13 1
10 5 -8 16 -19 11 -21 14 -6 12 10 -2 21 3 24 11 2 8 0 11 -5 8 -5 -3 -10 0
-10 8 0 8 4 12 9 8 6 -3 7 9 5 26 -3 18 -1 29 4 25 5 -3 6 -11 3 -17 -4 -7 -3
-8 1 -4 13 11 15 37 4 37 -6 0 -7 5 -4 10 3 6 0 10 -7 10 -8 1 -7 4 4 10 9 6
15 18 14 27 -2 10 -1 13 1 7 2 -7 13 -14 24 -17 15 -4 18 -2 10 7 -8 9 0 12
34 10 25 -1 48 2 51 8 4 6 10 5 15 -3 7 -11 9 -10 9 3 0 9 5 20 12 24 6 4 8 3
5 -2 -3 -6 3 -15 14 -22 16 -10 21 -10 26 3 3 9 12 14 20 11 8 -3 11 -1 8 4
-3 6 -2 10 4 10 5 0 11 -5 13 -11 2 -5 11 -7 21 -4 9 4 14 11 11 16 -3 5 1 6
9 3 8 -3 18 0 22 6 5 8 11 8 21 -1 8 -6 23 -9 33 -6 11 3 22 0 25 -7 2 -6 5
-3 5 7 1 10 6 15 11 12 6 -4 7 -11 4 -17 -4 -7 -2 -8 4 -4 9 5 9 13 1 29 -9
19 -7 18 10 -3 19 -23 27 -19 22 12 0 6 14 5 39 -5 23 -9 80 -14 80 -8 0 3 20
6 45 5 41 -1 45 1 40 20 -4 14 -1 12 10 -7 9 -15 20 -25 25 -22 15 9 12 17 -2
9 -10 -5 -10 -3 0 7 11 12 14 12 22 -1 8 -12 10 -11 10 5 0 15 2 17 9 6 5 -8
16 -11 25 -8 9 4 16 2 16 -4 0 -6 7 -3 16 5 20 20 30 21 14 1 -7 -9 -10 -18
-6 -22 3 -3 6 -1 6 6 0 7 6 11 14 8 7 -3 23 1 35 9 19 14 20 13 14 -3 -6 -16
-5 -16 10 -4 9 7 17 9 17 4 0 -9 66 -10 76 -1 3 4 19 2 35 -4 22 -8 34 -7 46
3 9 8 14 9 11 4 -4 -6 -3 -17 3 -25 7 -12 9 -12 9 3 0 13 6 16 23 12 12 -3 32
-7 44 -8 12 0 19 -5 16 -10 -3 -5 0 -8 8 -5 8 3 14 10 14 15 0 6 3 15 7 19 4
3 6 -3 3 -15 -3 -18 0 -20 21 -17 20 4 23 2 15 -8 -8 -10 -5 -12 12 -11 17 1
22 8 21 29 -1 14 2 24 5 20 6 -6 7 -12 10 -40 0 -8 6 -12 11 -9 6 3 10 0 10
-7 0 -10 2 -10 9 1 7 11 11 10 21 -5 9 -16 11 -16 6 -2 -7 23 9 32 24 13 14
-16 34 -10 24 7 -4 7 -2 8 4 4 9 -5 9 -13 1 -28 -8 -15 -8 -19 0 -13 7 4 17 3
24 -2 15 -11 27 -11 46 1 11 7 13 5 8 -7 -7 -19 8 -33 18 -17 5 8 11 8 20 0 8
-7 19 -9 24 -6 5 4 20 -4 32 -16 14 -15 20 -17 16 -7 -3 9 0 16 9 16 7 0 11
-4 8 -9 -3 -4 0 -8 6 -8 6 0 8 -6 4 -12 -4 -7 -4 -10 1 -6 4 4 17 2 29 -4 11
-7 25 -11 29 -10 4 1 15 -5 24 -13 11 -11 19 -13 28 -5 9 7 16 5 26 -7 13 -16
12 -17 -3 -4 -10 7 -18 9 -18 3 0 -15 26 -22 38 -10 6 6 15 2 25 -12 10 -14
20 -19 29 -14 9 5 8 2 -2 -11 -14 -17 -14 -18 9 -5 21 11 23 10 18 -3 -8 -21
3 -29 20 -15 11 9 12 7 6 -8 -6 -17 -5 -17 10 -5 10 8 20 11 24 7 3 -3 1 -6
-6 -6 -7 0 -9 -5 -5 -11 3 -6 15 -8 26 -6 11 3 21 0 24 -8 3 -8 13 -11 21 -8
13 5 13 7 -1 15 -9 5 -13 14 -9 21 10 17 11 47 1 53 -4 3 -8 14 -8 25 0 10 -6
19 -12 19 -9 0 -8 4 2 10 13 9 13 10 0 10 -13 0 -13 1 0 10 10 6 11 10 3 10
-7 0 -13 7 -13 16 0 9 5 13 13 9 6 -4 3 2 -8 12 -20 18 -31 58 -13 47 5 -3 2
10 -6 30 -8 20 -12 44 -9 53 5 13 2 15 -12 9 -18 -7 -18 -6 1 16 l19 22 -30
-18 -30 -18 22 23 23 23 -28 22 c-19 16 -24 26 -16 34 15 15 -6 80 -26 80 -9
0 -11 3 -5 8 6 4 11 13 13 21 2 11 0 12 -11 3 -22 -18 -29 -1 -10 21 16 18 16
20 1 14 -10 -3 -19 0 -22 9 -3 8 -2 13 3 10 5 -4 7 3 4 15 -4 13 -8 17 -13 9
-5 -7 -9 -3 -13 12 -10 34 -8 40 6 32 7 -4 9 -3 4 2 -5 5 -14 9 -20 9 -7 0
-11 8 -11 18 1 9 -2 17 -8 17 -5 0 -17 17 -26 38 -48 106 -163 244 -252 305
-57 38 -164 85 -242 107 -149 42 -253 53 -500 55 -131 1 -239 1 -240 -1z
m-203 -843 c3 -5 2 -12 -3 -15 -5 -3 -9 1 -9 9 0 17 3 19 12 6z m265 -11 c0
-5 -5 -10 -11 -10 -5 0 -7 5 -4 10 3 6 8 10 11 10 2 0 4 -4 4 -10z m-424 -25
c-1 -8 -5 -17 -8 -21 -5 -4 -4 16 1 34 3 9 9 -1 7 -13z m324 11 c0 -3 -4 -8
-10 -11 -5 -3 -10 -1 -10 4 0 6 5 11 10 11 6 0 10 -2 10 -4z m156 -11 c-1 -8
-5 -17 -8 -21 -5 -4 -4 16 1 34 3 9 9 -1 7 -13z m324 11 c0 -3 -4 -8 -10 -11
-5 -3 -10 -1 -10 4 0 6 5 11 10 11 6 0 10 -2 10 -4z m-525 -18 c5 4 5 1 1 -6
-6 -10 -11 -10 -22 -1 -8 6 -14 14 -14 16 0 3 6 0 13 -6 8 -6 18 -7 22 -3z
m480 0 c5 4 5 1 1 -6 -6 -10 -11 -10 -22 -1 -8 6 -14 14 -14 16 0 3 6 0 13 -6
8 -6 18 -7 22 -3z m440 3 c3 -5 2 -12 -3 -15 -5 -3 -9 1 -9 9 0 17 3 19 12 6z
m-1255 -16 c0 -2 -9 -3 -19 -2 -11 0 -18 5 -15 9 4 6 34 0 34 -7z m184 7 c3
-5 -1 -9 -9 -9 -8 0 -12 4 -9 9 3 4 7 8 9 8 2 0 6 -4 9 -8z m496 4 c0 -3 -4
-8 -10 -11 -5 -3 -10 -1 -10 4 0 6 5 11 10 11 6 0 10 -2 10 -4z m400 -6 c0 -5
-2 -10 -4 -10 -3 0 -8 5 -11 10 -3 6 -1 10 4 10 6 0 11 -4 11 -10z m64 2 c3
-5 -1 -9 -9 -9 -8 0 -12 4 -9 9 3 4 7 8 9 8 2 0 6 -4 9 -8z m-630 -20 c3 -5
-1 -9 -9 -9 -8 0 -12 4 -9 9 3 4 7 8 9 8 2 0 6 -4 9 -8z m43 -7 c0 -8 -4 -12
-9 -9 -5 3 -6 10 -3 15 9 13 12 11 12 -6z m327 7 c3 -5 -1 -9 -9 -9 -8 0 -12
4 -9 9 3 4 7 8 9 8 2 0 6 -4 9 -8z m92 -4 c3 -4 -1 -5 -10 -4 -8 1 -18 5 -22
8 -3 4 1 5 10 4 8 -1 18 -5 22 -8z m-879 -13 c0 -8 -4 -12 -9 -9 -5 3 -6 10
-3 15 9 13 12 11 12 -6z m120 0 c0 -8 -4 -12 -9 -9 -5 3 -6 10 -3 15 9 13 12
11 12 -6z m-261 -7 c3 -4 -1 -5 -10 -4 -8 1 -18 5 -22 8 -3 4 1 5 10 4 8 -1
18 -5 22 -8z m-62 -36 c3 -5 -1 -9 -9 -9 -8 0 -12 4 -9 9 3 4 7 8 9 8 2 0 6
-4 9 -8z m161 -2 c-3 -5 -1 -10 6 -10 7 0 10 -3 6 -6 -9 -9 -28 6 -22 17 4 5
8 9 11 9 3 0 2 -4 -1 -10z m92 -12 c-3 -8 -6 -5 -6 6 -1 11 2 17 5 13 3 -3 4
-12 1 -19z m1307 10 c-3 -4 -11 -5 -19 -1 -21 7 -19 12 4 10 11 0 18 -5 15 -9z
m66 7 c0 -7 -30 -13 -34 -7 -3 4 4 9 15 9 10 1 19 0 19 -2z m-4249 -22 c13
-16 12 -17 -3 -4 -17 13 -22 21 -14 21 2 0 10 -8 17 -17z m2653 -1 c3 -5 -1
-9 -9 -9 -8 0 -12 4 -9 9 3 4 7 8 9 8 2 0 6 -4 9 -8z m1444 -17 c-3 -3 -9 2
-12 12 -6 14 -5 15 5 6 7 -7 10 -15 7 -18z m90 -20 c-3 -3 -9 2 -12 12 -6 14
-5 15 5 6 7 -7 10 -15 7 -18z m102 15 c0 -5 -5 -10 -11 -10 -5 0 -7 5 -4 10 3
6 8 10 11 10 2 0 4 -4 4 -10z m-1680 -40 c0 -5 -2 -10 -4 -10 -3 0 -8 5 -11
10 -3 6 -1 10 4 10 6 0 11 -4 11 -10z m1715 -20 c3 -5 1 -10 -4 -10 -6 0 -11
5 -11 10 0 6 2 10 4 10 3 0 8 -4 11 -10z m129 2 c3 -5 -1 -9 -9 -9 -8 0 -12 4
-9 9 3 4 7 8 9 8 2 0 6 -4 9 -8z m-1808 -24 c3 -4 -1 -5 -10 -4 -8 1 -18 5
-22 8 -3 4 1 5 10 4 8 -1 18 -5 22 -8z m1860 -34 c1 -9 0 -13 -4 -10 -3 4 -7
14 -8 22 -1 9 0 13 4 10 3 -4 7 -14 8 -22z m-3401 -3 c3 -5 2 -12 -3 -15 -5
-3 -9 1 -9 9 0 17 3 19 12 6z m3461 -27 c1 -9 0 -13 -4 -10 -3 4 -7 14 -8 22
-1 9 0 13 4 10 3 -4 7 -14 8 -22z m45 9 c13 -16 12 -17 -3 -4 -10 7 -18 15
-18 17 0 8 8 3 21 -13z m-3641 -7 c0 -2 -6 -9 -14 -15 -11 -9 -16 -9 -22 0 -4
7 -3 9 4 5 6 -3 13 -2 17 4 6 10 15 14 15 6z m-125 -15 c-9 -8 -36 -10 -30 -2
2 4 11 8 20 8 8 0 13 -3 10 -6z m195 3 c0 -8 -19 -13 -24 -6 -3 5 1 9 9 9 8 0
15 -2 15 -3z m50 -4 c0 -5 -5 -10 -11 -10 -5 0 -7 5 -4 10 3 6 8 10 11 10 2 0
4 -4 4 -10z m270 4 c0 -8 -19 -13 -24 -6 -3 5 1 9 9 9 8 0 15 -2 15 -3z m1226
-9 c-1 -8 -5 -17 -8 -21 -5 -4 -4 16 1 34 3 9 9 -1 7 -13z m2025 -2 c13 -16
12 -17 -3 -4 -10 7 -18 15 -18 17 0 8 8 3 21 -13z m-4265 -18 c-1 -8 -5 -17
-8 -21 -5 -4 -4 16 1 34 3 9 9 -1 7 -13z m808 -13 c3 -5 -1 -9 -9 -9 -8 0 -12
4 -9 9 3 4 7 8 9 8 2 0 6 -4 9 -8z m114 -4 c-5 -14 -36 -20 -43 -8 -3 5 4 7
15 5 11 -2 20 0 20 6 0 5 3 9 6 9 3 0 4 -5 2 -12z m-863 -18 c3 -5 1 -10 -4
-10 -6 0 -11 5 -11 10 0 6 2 10 4 10 3 0 8 -4 11 -10z m290 1 c-9 -8 -36 -10
-30 -2 2 4 11 8 20 8 8 0 13 -3 10 -6z m396 -8 c13 -16 12 -17 -3 -4 -10 7
-18 15 -18 17 0 8 8 3 21 -13z m-465 -29 c1 -9 0 -13 -4 -10 -3 4 -7 14 -8 22
-1 9 0 13 4 10 3 -4 7 -14 8 -22z m144 16 c0 -5 -5 -10 -11 -10 -5 0 -7 5 -4
10 3 6 8 10 11 10 2 0 4 -4 4 -10z m176 -5 c-1 -8 -5 -17 -8 -21 -5 -4 -4 16
1 34 3 9 9 -1 7 -13z m-582 -21 c3 -8 2 -12 -4 -9 -6 3 -10 10 -10 16 0 14 7
11 14 -7z m551 6 c3 -6 -1 -7 -9 -4 -18 7 -21 14 -7 14 6 0 13 -4 16 -10z
m-112 -13 c4 3 7 1 7 -5 0 -21 -16 -21 -30 1 -12 19 -11 21 2 10 8 -7 18 -10
21 -6z m-66 -19 c-3 -8 -6 -5 -6 6 -1 11 2 17 5 13 3 -3 4 -12 1 -19z m1813
-44 c0 -8 -19 -13 -24 -6 -3 5 1 9 9 9 8 0 15 -2 15 -3z m0 -118 c0 -3 -4 -8
-10 -11 -5 -3 -10 -1 -10 4 0 6 5 11 10 11 6 0 10 -2 10 -4z m-20 -330 c0 -2
-6 -9 -14 -15 -11 -9 -16 -9 -22 0 -4 7 -3 9 4 5 6 -3 13 -2 17 4 6 10 15 14
15 6z m-106 -134 c3 -5 -1 -9 -9 -9 -8 0 -12 4 -9 9 3 4 7 8 9 8 2 0 6 -4 9
-8z m71 -42 c3 -6 -1 -7 -9 -4 -18 7 -21 14 -7 14 6 0 13 -4 16 -10z m-45 -34
c0 -3 -4 -8 -10 -11 -5 -3 -10 -1 -10 4 0 6 5 11 10 11 6 0 10 -2 10 -4z m0
-51 c0 -2 -9 -3 -19 -2 -11 0 -18 5 -15 9 4 6 34 0 34 -7z m-24 -131 c1 -9 0
-13 -4 -10 -3 4 -7 14 -8 22 -1 9 0 13 4 10 3 -4 7 -14 8 -22z m-22 -30 c3 -8
2 -12 -4 -9 -6 3 -10 10 -10 16 0 14 7 11 14 -7z m31 -74 c-3 -5 -11 -10 -16
-10 -6 0 -7 5 -4 10 3 6 11 10 16 10 6 0 7 -4 4 -10z m-52 -65 c4 -8 3 -16 -1
-19 -4 -3 -9 4 -9 15 -2 23 3 25 10 4z m-17 -57 c3 -4 -1 -5 -10 -4 -8 1 -18
5 -22 8 -3 4 1 5 10 4 8 -1 18 -5 22 -8z m-10 -56 c-17 -16 -18 -16 -5 5 7 12
15 20 18 17 3 -2 -3 -12 -13 -22z m18 -40 c3 -5 -1 -9 -9 -9 -8 0 -12 4 -9 9
3 4 7 8 9 8 2 0 6 -4 9 -8z m3 -50 c0 -10 -6 -19 -13 -19 -9 0 -9 5 -1 19 7
10 13 18 14 18 1 0 1 -8 0 -18z m-72 -91 c-9 -8 -36 -10 -30 -2 2 4 11 8 20 8
8 0 13 -3 10 -6z m1 -66 c-1 -8 -5 -17 -8 -21 -5 -4 -4 16 1 34 3 9 9 -1 7
-13z m-40 -60 c-1 -8 -5 -17 -8 -21 -5 -4 -4 16 1 34 3 9 9 -1 7 -13z m64 -35
c0 -4 -7 -7 -15 -6 -23 3 -26 12 -5 13 11 1 20 -2 20 -7z m-80 -94 c0 -2 -7
-7 -16 -10 -8 -3 -12 -2 -9 4 6 10 25 14 25 6z m20 -46 c0 -5 -5 -10 -11 -10
-5 0 -7 5 -4 10 3 6 8 10 11 10 2 0 4 -4 4 -10z m-47 -45 c4 -8 3 -16 -1 -19
-4 -3 -9 4 -9 15 -2 23 3 25 10 4z m27 -149 c0 -3 -4 -8 -10 -11 -5 -3 -10 -1
-10 4 0 6 5 11 10 11 6 0 10 -2 10 -4z m-60 -46 c0 -5 -2 -10 -4 -10 -3 0 -8
5 -11 10 -3 6 -1 10 4 10 6 0 11 -4 11 -10z m15 -99 c-9 -8 -36 -10 -30 -2 2
4 11 8 20 8 8 0 13 -3 10 -6z m35 -36 c0 -12 -19 -12 -23 0 -4 9 -1 12 9 8 7
-3 14 -7 14 -8z m-54 -101 c1 -9 0 -13 -4 -10 -3 4 -7 14 -8 22 -1 9 0 13 4
10 3 -4 7 -14 8 -22z m-26 -20 c0 -8 -19 -13 -24 -6 -3 5 1 9 9 9 8 0 15 -2
15 -3z m-15 -83 c-9 -8 -36 -10 -30 -2 2 4 11 8 20 8 8 0 13 -3 10 -6z m0 -40
c-9 -8 -36 -10 -30 -2 2 4 11 8 20 8 8 0 13 -3 10 -6z m-57 -86 c-3 -3 -9 2
-12 12 -6 14 -5 15 5 6 7 -7 10 -15 7 -18z m47 -55 c-3 -5 -12 -10 -18 -10 -7
0 -6 4 3 10 19 12 23 12 15 0z m-54 -73 c-10 -9 -11 -8 -5 6 3 10 9 15 12 12
3 -3 0 -11 -7 -18z m9 -61 c0 -3 -4 -8 -10 -11 -5 -3 -10 -1 -10 4 0 6 5 11
10 11 6 0 10 -2 10 -4z m-45 -245 c-9 -8 -36 -10 -30 -2 2 4 11 8 20 8 8 0 13
-3 10 -6z m-15 -61 c0 -5 -5 -10 -11 -10 -5 0 -7 5 -4 10 3 6 8 10 11 10 2 0
4 -4 4 -10z m-44 -65 c-1 -8 -5 -17 -8 -21 -5 -4 -4 16 1 34 3 9 9 -1 7 -13z
m29 -164 c3 -5 2 -12 -3 -15 -5 -3 -9 1 -9 9 0 17 3 19 12 6z m-49 -153 c3 -4
-1 -5 -10 -4 -8 1 -18 5 -22 8 -3 4 1 5 10 4 8 -1 18 -5 22 -8z m-36 -52 c0
-2 -7 -7 -16 -10 -8 -3 -12 -2 -9 4 6 10 25 14 25 6z m-25 -105 c-9 -8 -36
-10 -30 -2 2 4 11 8 20 8 8 0 13 -3 10 -6z m-15 -81 c0 -5 -5 -10 -11 -10 -5
0 -7 5 -4 10 3 6 8 10 11 10 2 0 4 -4 4 -10z m-5 -80 c3 -5 1 -10 -4 -10 -6 0
-11 5 -11 10 0 6 2 10 4 10 3 0 8 -4 11 -10z m-60 -359 c-9 -8 -36 -10 -30 -2
2 4 11 8 20 8 8 0 13 -3 10 -6z m-40 -120 c3 -5 2 -12 -3 -15 -5 -3 -9 1 -9 9
0 17 3 19 12 6z m1 -66 c-1 -8 -5 -17 -8 -21 -5 -4 -4 16 1 34 3 9 9 -1 7 -13z
m-62 -93 c3 -5 -1 -9 -9 -9 -8 0 -12 4 -9 9 3 4 7 8 9 8 2 0 6 -4 9 -8z m71
-11 c3 -5 2 -12 -3 -15 -5 -3 -9 1 -9 9 0 17 3 19 12 6z m-48 -103 c2 -17 0
-19 -7 -8 -5 8 -6 18 -4 22 8 12 10 10 11 -14z m-42 -47 c3 -5 2 -12 -3 -15
-5 -3 -9 1 -9 9 0 17 3 19 12 6z m-20 -161 c3 -5 1 -10 -4 -10 -6 0 -11 5 -11
10 0 6 2 10 4 10 3 0 8 -4 11 -10z m-55 -116 c0 -8 -19 -13 -24 -6 -3 5 1 9 9
9 8 0 15 -2 15 -3z m55 -4 c3 -5 1 -10 -4 -10 -6 0 -11 5 -11 10 0 6 2 10 4
10 3 0 8 -4 11 -10z m-20 -80 c3 -5 1 -10 -4 -10 -6 0 -11 5 -11 10 0 6 2 10
4 10 3 0 8 -4 11 -10z m-121 -278 c3 -5 -1 -9 -9 -9 -8 0 -12 4 -9 9 3 4 7 8
9 8 2 0 6 -4 9 -8z m6 -102 c0 -5 -2 -10 -4 -10 -3 0 -8 5 -11 10 -3 6 -1 10
4 10 6 0 11 -4 11 -10z m-26 -146 c3 -8 2 -12 -4 -9 -6 3 -10 10 -10 16 0 14
7 11 14 -7z m-57 -23 c0 -11 -5 -18 -9 -15 -4 3 -5 11 -1 19 7 21 12 19 10 -4z
m0 -63 c2 -17 0 -19 -7 -8 -5 8 -6 18 -4 22 8 12 10 10 11 -14z m-57 -144 c0
-8 -19 -13 -24 -6 -3 5 1 9 9 9 8 0 15 -2 15 -3z m16 -49 c-1 -8 -5 -17 -8
-21 -5 -4 -4 16 1 34 3 9 9 -1 7 -13z m-26 -191 c0 -8 -19 -13 -24 -6 -3 5 1
9 9 9 8 0 15 -2 15 -3z m-56 -46 c-3 -4 -11 -5 -19 -1 -21 7 -19 12 4 10 11 0
18 -5 15 -9z m-38 -154 c1 -9 0 -13 -4 -10 -3 4 -7 14 -8 22 -1 9 0 13 4 10 3
-4 7 -14 8 -22z m-40 -9 c-1 -8 -5 -17 -8 -21 -5 -4 -4 16 1 34 3 9 9 -1 7
-13z m41 -47 c2 -17 0 -19 -7 -8 -5 8 -6 18 -4 22 8 12 10 10 11 -14z m-41
-24 c1 -9 0 -13 -4 -10 -3 4 -7 14 -8 22 -1 9 0 13 4 10 3 -4 7 -14 8 -22z
m-21 -124 c3 -5 1 -10 -4 -10 -6 0 -11 5 -11 10 0 6 2 10 4 10 3 0 8 -4 11
-10z m-37 -65 c-3 -3 -9 2 -12 12 -6 14 -5 15 5 6 7 -7 10 -15 7 -18z m-64
-13 c3 -5 -1 -9 -9 -9 -8 0 -12 4 -9 9 3 4 7 8 9 8 2 0 6 -4 9 -8z m39 -27 c4
-8 3 -16 -1 -19 -4 -3 -9 4 -9 15 -2 23 3 25 10 4z m4 -60 c0 -8 -4 -12 -9 -9
-5 3 -6 10 -3 15 9 13 12 11 12 -6z m-121 -240 c-1 -8 -5 -17 -8 -21 -5 -4 -4
16 1 34 3 9 9 -1 7 -13z m-61 -75 c3 -5 1 -10 -4 -10 -6 0 -11 5 -11 10 0 6 2
10 4 10 3 0 8 -4 11 -10z m20 -39 c3 -5 2 -12 -3 -15 -5 -3 -9 1 -9 9 0 17 3
19 12 6z m-54 -18 c13 -16 12 -17 -3 -4 -10 7 -18 15 -18 17 0 8 8 3 21 -13z
m-5 -49 c1 -9 0 -13 -4 -10 -3 4 -7 14 -8 22 -1 9 0 13 4 10 3 -4 7 -14 8 -22z
m-22 -52 c2 -4 -5 -9 -17 -9 -17 -2 -19 0 -7 7 18 12 18 12 24 2z m-37 -47 c0
-8 -4 -12 -9 -9 -5 3 -6 10 -3 15 9 13 12 11 12 -6z m-17 -69 c0 -3 -4 -8 -10
-11 -5 -3 -10 -1 -10 4 0 6 5 11 10 11 6 0 10 -2 10 -4z m-5 -46 c3 -5 1 -10
-4 -10 -6 0 -11 5 -11 10 0 6 2 10 4 10 3 0 8 -4 11 -10z m-100 -60 c3 -5 1
-10 -4 -10 -6 0 -11 5 -11 10 0 6 2 10 4 10 3 0 8 -4 11 -10z m71 -2 c3 -4 -1
-5 -10 -4 -8 1 -18 5 -22 8 -3 4 1 5 10 4 8 -1 18 -5 22 -8z m-126 -74 c0 -8
-19 -13 -24 -6 -3 5 1 9 9 9 8 0 15 -2 15 -3z m-24 -66 c3 -4 -1 -5 -10 -4 -8
1 -18 5 -22 8 -3 4 1 5 10 4 8 -1 18 -5 22 -8z m-36 -34 c0 -8 -19 -13 -24 -6
-3 5 1 9 9 9 8 0 15 -2 15 -3z m-3820 -58 c0 -3 -4 -8 -10 -11 -5 -3 -10 -1
-10 4 0 6 5 11 10 11 6 0 10 -2 10 -4z m3817 -38 c2 -17 0 -19 -7 -8 -5 8 -6
18 -4 22 8 12 10 10 11 -14z m-3842 -28 c3 -5 1 -10 -4 -10 -6 0 -11 5 -11 10
0 6 2 10 4 10 3 0 8 -4 11 -10z m3700 -69 c3 -5 2 -12 -3 -15 -5 -3 -9 1 -9 9
0 17 3 19 12 6z m-15 -47 c0 -8 -19 -13 -24 -6 -3 5 1 9 9 9 8 0 15 -2 15 -3z
m80 -44 c0 -5 -5 -10 -11 -10 -5 0 -7 5 -4 10 3 6 8 10 11 10 2 0 4 -4 4 -10z
m-83 -52 c2 -17 0 -19 -7 -8 -5 8 -6 18 -4 22 8 12 10 10 11 -14z m-20 -63 c0
-8 -4 -12 -9 -9 -5 3 -6 10 -3 15 9 13 12 11 12 -6z m-57 -25 c0 -5 -2 -10 -4
-10 -3 0 -8 5 -11 10 -3 6 -1 10 4 10 6 0 11 -4 11 -10z m50 -16 c0 -8 -19
-13 -24 -6 -3 5 1 9 9 9 8 0 15 -2 15 -3z m-3549 -31 c13 -16 12 -17 -3 -4
-10 7 -18 15 -18 17 0 8 8 3 21 -13z m3414 -2 c3 -5 2 -12 -3 -15 -5 -3 -9 1
-9 9 0 17 3 19 12 6z m30 -71 c-3 -5 -12 -10 -18 -10 -7 0 -6 4 3 10 19 12 23
12 15 0z m-61 -58 c3 -5 -1 -9 -9 -9 -8 0 -12 4 -9 9 3 4 7 8 9 8 2 0 6 -4 9
-8z m-67 -27 c0 -8 -4 -12 -9 -9 -5 3 -6 10 -3 15 9 13 12 11 12 -6z m-37 -55
c0 -5 -2 -10 -4 -10 -3 0 -8 5 -11 10 -3 6 -1 10 4 10 6 0 11 -4 11 -10z m-55
-20 c3 -6 -1 -7 -9 -4 -18 7 -21 14 -7 14 6 0 13 -4 16 -10z m-48 -15 c0 -8
-4 -12 -9 -9 -5 3 -6 10 -3 15 9 13 12 11 12 -6z m99 -7 c3 -4 -1 -5 -10 -4
-8 1 -18 5 -22 8 -3 4 1 5 10 4 8 -1 18 -5 22 -8z m-139 -33 c0 -8 -4 -12 -9
-9 -5 3 -6 10 -3 15 9 13 12 11 12 -6z m63 -5 c0 -5 -2 -10 -4 -10 -3 0 -8 5
-11 10 -3 6 -1 10 4 10 6 0 11 -4 11 -10z m-104 -156 c1 -9 0 -13 -4 -10 -3 4
-7 14 -8 22 -1 9 0 13 4 10 3 -4 7 -14 8 -22z m-121 -3 c-9 -8 -36 -10 -30 -2
2 4 11 8 20 8 8 0 13 -3 10 -6z m115 -65 c0 -3 -4 -8 -10 -11 -5 -3 -10 -1
-10 4 0 6 5 11 10 11 6 0 10 -2 10 -4z m-154 -98 c3 -4 -1 -5 -10 -4 -8 1 -18
5 -22 8 -3 4 1 5 10 4 8 -1 18 -5 22 -8z m-80 -43 c-1 -8 -5 -17 -8 -21 -5 -4
-4 16 1 34 3 9 9 -1 7 -13z m-72 -33 c3 -5 -1 -9 -9 -9 -8 0 -12 4 -9 9 3 4 7
8 9 8 2 0 6 -4 9 -8z m91 -11 c3 -5 2 -12 -3 -15 -5 -3 -9 1 -9 9 0 17 3 19
12 6z m-250 -51 c-3 -5 -12 -10 -18 -10 -7 0 -6 4 3 10 19 12 23 12 15 0z
m215 6 c0 -3 -4 -8 -10 -11 -5 -3 -10 -1 -10 4 0 6 5 11 10 11 6 0 10 -2 10
-4z m-143 -61 c0 -8 -4 -12 -9 -9 -5 3 -6 10 -3 15 9 13 12 11 12 -6z m-83
-43 c3 -5 -1 -9 -9 -9 -8 0 -12 4 -9 9 3 4 7 8 9 8 2 0 6 -4 9 -8z m-201 -67
c4 -8 3 -16 -1 -19 -4 -3 -9 4 -9 15 -2 23 3 25 10 4z m87 11 c0 -3 -4 -8 -10
-11 -5 -3 -10 -1 -10 4 0 6 5 11 10 11 6 0 10 -2 10 -4z m-40 -22 c0 -8 -19
-13 -24 -6 -3 5 1 9 9 9 8 0 15 -2 15 -3z m-43 -49 c0 -8 -4 -12 -9 -9 -5 3
-6 10 -3 15 9 13 12 11 12 -6z m4 -62 c13 -16 12 -17 -3 -4 -17 13 -22 21 -14
21 2 0 10 -8 17 -17z m-206 -52 c3 -5 2 -12 -3 -15 -5 -3 -9 1 -9 9 0 17 3 19
12 6z m-115 -15 c0 -3 -4 -8 -10 -11 -5 -3 -10 -1 -10 4 0 6 5 11 10 11 6 0
10 -2 10 -4z m-2380 -26 c0 -5 -7 -7 -15 -4 -8 4 -15 8 -15 10 0 2 7 4 15 4 8
0 15 -4 15 -10z m120 -20 c0 -5 -2 -10 -4 -10 -3 0 -8 5 -11 10 -3 6 -1 10 4
10 6 0 11 -4 11 -10z m2135 -9 c3 -5 2 -12 -3 -15 -5 -3 -9 1 -9 9 0 17 3 19
12 6z m122 -6 c0 -8 -4 -12 -9 -9 -5 3 -6 10 -3 15 9 13 12 11 12 -6z m-147
-1 c0 -8 -19 -13 -24 -6 -3 5 1 9 9 9 8 0 15 -2 15 -3z m27 -56 c2 -17 0 -19
-7 -8 -5 8 -6 18 -4 22 8 12 10 10 11 -14z m100 -10 c-3 -8 -6 -5 -6 6 -1 11
2 17 5 13 3 -3 4 -12 1 -19z m-340 -23 c0 -8 -4 -12 -9 -9 -5 3 -6 10 -3 15 9
13 12 11 12 -6z m103 11 c0 -3 -4 -8 -10 -11 -5 -3 -10 -1 -10 4 0 6 5 11 10
11 6 0 10 -2 10 -4z m-227 -31 c4 -8 3 -16 -1 -19 -4 -3 -9 4 -9 15 -2 23 3
25 10 4z m244 -10 c0 -8 -4 -12 -9 -9 -5 3 -6 10 -3 15 9 13 12 11 12 -6z
m-1840 -10 c0 -8 -4 -12 -9 -9 -5 3 -6 10 -3 15 9 13 12 11 12 -6z m158 -15
c3 -5 1 -10 -4 -10 -6 0 -11 5 -11 10 0 6 2 10 4 10 3 0 8 -4 11 -10z m1359
-18 c3 -5 -1 -9 -9 -9 -8 0 -12 4 -9 9 3 4 7 8 9 8 2 0 6 -4 9 -8z m66 4 c0
-3 -4 -8 -10 -11 -5 -3 -10 -1 -10 4 0 6 5 11 10 11 6 0 10 -2 10 -4z m-1360
-20 c0 -2 -7 -7 -16 -10 -8 -3 -12 -2 -9 4 6 10 25 14 25 6z m1155 -5 c3 -5 2
-12 -3 -15 -5 -3 -9 1 -9 9 0 17 3 19 12 6z m58 -6 c4 -8 3 -16 -1 -19 -4 -3
-9 4 -9 15 -2 23 3 25 10 4z m-133 -20 c0 -2 -9 -3 -19 -2 -11 0 -18 5 -15 9
4 6 34 0 34 -7z m-664 -31 c1 -9 0 -13 -4 -10 -3 4 -7 14 -8 22 -1 9 0 13 4
10 3 -4 7 -14 8 -22z m604 16 c0 -5 -5 -10 -11 -10 -5 0 -7 5 -4 10 3 6 8 10
11 10 2 0 4 -4 4 -10z m-305 -19 c-9 -8 -36 -10 -30 -2 2 4 11 8 20 8 8 0 13
-3 10 -6z m485 5 c0 -3 -4 -8 -10 -11 -5 -3 -10 -1 -10 4 0 6 5 11 10 11 6 0
10 -2 10 -4z m-395 -25 c-9 -8 -36 -10 -30 -2 2 4 11 8 20 8 8 0 13 -3 10 -6z
m-265 -17 c0 -8 -19 -13 -24 -6 -3 5 1 9 9 9 8 0 15 -2 15 -3z m210 0 c0 -8
-19 -13 -24 -6 -3 5 1 9 9 9 8 0 15 -2 15 -3z m210 -9 c0 -2 -9 -3 -19 -2 -11
0 -18 5 -15 9 4 6 34 0 34 -7z m172 -7 c-7 -7 -12 -8 -12 -2 0 14 12 26 19 19
2 -3 -1 -11 -7 -17z m-637 -8 c3 -5 1 -10 -4 -10 -6 0 -11 5 -11 10 0 6 2 10
4 10 3 0 8 -4 11 -10z m82 -32 c-3 -8 -6 -5 -6 6 -1 11 2 17 5 13 3 -3 4 -12
1 -19z"/>
<path d="M9960 10441 c0 -6 4 -12 8 -15 5 -3 9 1 9 9 0 8 -4 15 -9 15 -4 0 -8
-4 -8 -9z"/>
<path d="M8586 10291 c-3 -5 3 -11 15 -14 16 -4 18 -3 8 9 -13 16 -16 17 -23
5z"/>
<path d="M8435 10271 c-3 -5 -1 -12 5 -16 5 -3 10 1 10 9 0 18 -6 21 -15 7z"/>
<path d="M9456 10247 c3 -10 9 -15 12 -12 3 3 0 11 -7 18 -10 9 -11 8 -5 -6z"/>
<path d="M8125 10201 c-3 -5 -2 -12 3 -15 5 -3 9 1 9 9 0 17 -3 19 -12 6z"/>
<path d="M5551 10084 c0 -11 3 -14 6 -6 3 7 2 16 -1 19 -3 4 -6 -2 -5 -13z"/>
<path d="M9876 10087 c3 -10 9 -15 12 -12 3 3 0 11 -7 18 -10 9 -11 8 -5 -6z"/>
<path d="M10025 10000 c-3 -5 -1 -10 4 -10 6 0 11 5 11 10 0 6 -2 10 -4 10 -3
0 -8 -4 -11 -10z"/>
<path d="M5971 9914 c0 -11 3 -14 6 -6 3 7 2 16 -1 19 -3 4 -6 -2 -5 -13z"/>
<path d="M7745 8320 c-3 -5 -1 -10 4 -10 6 0 11 5 11 10 0 6 -2 10 -4 10 -3 0
-8 -4 -11 -10z"/>
<path d="M7535 7220 c3 -5 8 -10 11 -10 2 0 4 5 4 10 0 6 -5 10 -11 10 -5 0
-7 -4 -4 -10z"/>
<path d="M7316 6153 c-6 -14 -5 -15 5 -6 7 7 10 15 7 18 -3 3 -9 -2 -12 -12z"/>
<path d="M7165 5410 c-3 -5 -1 -10 4 -10 6 0 11 5 11 10 0 6 -2 10 -4 10 -3 0
-8 -4 -11 -10z"/>
<path d="M6335 2960 c3 -5 8 -10 11 -10 2 0 4 5 4 10 0 6 -5 10 -11 10 -5 0
-7 -4 -4 -10z"/>
<path d="M5885 2270 c-3 -6 1 -7 9 -4 18 7 21 14 7 14 -6 0 -13 -4 -16 -10z"/>
<path d="M1679 1537 c6 -8 7 -18 3 -22 -4 -5 -1 -5 6 -1 10 6 10 11 1 22 -6 8
-14 14 -16 14 -3 0 0 -6 6 -13z"/>
<path d="M1720 1466 c0 -2 7 -7 16 -10 8 -3 12 -2 9 4 -6 10 -25 14 -25 6z"/>
<path d="M3371 804 c0 -11 3 -14 6 -6 3 7 2 16 -1 19 -3 4 -6 -2 -5 -13z"/>
</g>
</svg>
